<svg width="760" height="521" viewBox="0 0 760 521" fill="none" xmlns="http://www.w3.org/2000/svg">
<g clip-path="url(#clip0_5237_110959)">
<g filter="url(#filter0_d_5237_110959)">
<path fill-rule="evenodd" clip-rule="evenodd" d="M-466 11.923C-466 5.33812 -460.661 0 -454.076 0H-390.482C-383.896 0 -378.558 5.33812 -378.558 11.923V75.5125C-378.558 82.0974 -383.896 87.4355 -390.482 87.4355H-454.076C-460.661 87.4355 -466 82.0974 -466 75.5125V11.923ZM-454.076 0.722607C-460.262 0.722607 -465.277 5.7372 -465.277 11.923V75.5125C-465.277 81.6983 -460.262 86.7129 -454.076 86.7129H-390.482C-384.295 86.7129 -379.28 81.6983 -379.28 75.5125V11.923C-379.28 5.73721 -384.295 0.722607 -390.482 0.722607H-454.076Z" fill="url(#paint0_radial_5237_110959)" shape-rendering="crispEdges"/>
<path fill-rule="evenodd" clip-rule="evenodd" d="M-379.28 11.923C-379.28 5.33812 -373.942 0 -367.356 0H-303.762C-297.176 0 -291.838 5.33812 -291.838 11.923V75.5125C-291.838 82.0974 -297.176 87.4355 -303.762 87.4355H-367.356C-373.942 87.4355 -379.28 82.0974 -379.28 75.5125V11.923ZM-367.356 0.722607C-373.543 0.722607 -378.558 5.7372 -378.558 11.923V75.5125C-378.558 81.6983 -373.543 86.7129 -367.356 86.7129H-303.762C-297.576 86.7129 -292.561 81.6983 -292.561 75.5125V11.923C-292.561 5.73721 -297.576 0.722607 -303.762 0.722607H-367.356Z" fill="url(#paint1_radial_5237_110959)" shape-rendering="crispEdges"/>
<path fill-rule="evenodd" clip-rule="evenodd" d="M-292.561 11.923C-292.561 5.33812 -287.222 0 -280.637 0H-217.042C-210.457 0 -205.118 5.33812 -205.118 11.923V75.5125C-205.118 82.0974 -210.457 87.4355 -217.042 87.4355H-280.637C-287.222 87.4355 -292.561 82.0974 -292.561 75.5125V11.923ZM-280.637 0.722607C-286.823 0.722607 -291.838 5.7372 -291.838 11.923V75.5125C-291.838 81.6983 -286.823 86.7129 -280.637 86.7129H-217.042C-210.856 86.7129 -205.841 81.6983 -205.841 75.5125V11.923C-205.841 5.73721 -210.856 0.722607 -217.042 0.722607H-280.637Z" fill="url(#paint2_radial_5237_110959)" shape-rendering="crispEdges"/>
<path fill-rule="evenodd" clip-rule="evenodd" d="M-205.841 11.923C-205.841 5.33812 -200.502 0 -193.917 0H-130.322C-123.737 0 -118.398 5.33812 -118.398 11.923V75.5125C-118.398 82.0974 -123.737 87.4355 -130.322 87.4355H-193.917C-200.502 87.4355 -205.841 82.0974 -205.841 75.5125V11.923ZM-193.917 0.722607C-200.103 0.722607 -205.118 5.7372 -205.118 11.923V75.5125C-205.118 81.6983 -200.103 86.7129 -193.917 86.7129H-130.322C-124.136 86.7129 -119.121 81.6983 -119.121 75.5125V11.923C-119.121 5.73721 -124.136 0.722607 -130.322 0.722607H-193.917Z" fill="url(#paint3_radial_5237_110959)" shape-rendering="crispEdges"/>
<path fill-rule="evenodd" clip-rule="evenodd" d="M-119.121 11.923C-119.121 5.33812 -113.783 0 -107.197 0H-43.6027C-37.0173 0 -31.6788 5.33812 -31.6788 11.923V75.5125C-31.6788 82.0974 -37.0173 87.4355 -43.6027 87.4355H-107.197C-113.783 87.4355 -119.121 82.0974 -119.121 75.5125V11.923ZM-107.197 0.722607C-113.383 0.722607 -118.398 5.7372 -118.398 11.923V75.5125C-118.398 81.6983 -113.383 86.7129 -107.197 86.7129H-43.6027C-37.4164 86.7129 -32.4014 81.6983 -32.4014 75.5125V11.923C-32.4014 5.73721 -37.4164 0.722607 -43.6027 0.722607H-107.197Z" fill="url(#paint4_radial_5237_110959)" shape-rendering="crispEdges"/>
<path fill-rule="evenodd" clip-rule="evenodd" d="M-32.4014 11.923C-32.4014 5.33812 -27.0629 0 -20.4775 0H43.117C49.7024 0 55.041 5.33812 55.041 11.923V75.5125C55.041 82.0974 49.7024 87.4355 43.117 87.4355H-20.4775C-27.0629 87.4355 -32.4014 82.0974 -32.4014 75.5125V11.923ZM-20.4775 0.722607C-26.6638 0.722607 -31.6788 5.7372 -31.6788 11.923V75.5125C-31.6788 81.6983 -26.6638 86.7129 -20.4775 86.7129H43.117C49.3033 86.7129 54.3183 81.6983 54.3183 75.5125V11.923C54.3183 5.73721 49.3033 0.722607 43.117 0.722607H-20.4775Z" fill="url(#paint5_radial_5237_110959)" shape-rendering="crispEdges"/>
<path fill-rule="evenodd" clip-rule="evenodd" d="M54.3183 11.923C54.3183 5.33812 59.6568 0 66.2423 0H129.837C136.422 0 141.761 5.33812 141.761 11.923V75.5125C141.761 82.0974 136.422 87.4355 129.837 87.4355H66.2423C59.6568 87.4355 54.3183 82.0974 54.3183 75.5125V11.923ZM66.2423 0.722607C60.056 0.722607 55.041 5.7372 55.041 11.923V75.5125C55.041 81.6983 60.0559 86.7129 66.2423 86.7129H129.837C136.023 86.7129 141.038 81.6983 141.038 75.5125V11.923C141.038 5.73721 136.023 0.722607 129.837 0.722607H66.2423Z" fill="url(#paint6_radial_5237_110959)" shape-rendering="crispEdges"/>
<path fill-rule="evenodd" clip-rule="evenodd" d="M141.038 11.923C141.038 5.33812 146.377 0 152.962 0H216.556C223.142 0 228.48 5.33812 228.48 11.923V75.5125C228.48 82.0974 223.142 87.4355 216.556 87.4355H152.962C146.377 87.4355 141.038 82.0974 141.038 75.5125V11.923ZM152.962 0.722607C146.776 0.722607 141.761 5.7372 141.761 11.923V75.5125C141.761 81.6983 146.776 86.7129 152.962 86.7129H216.556C222.743 86.7129 227.758 81.6983 227.758 75.5125V11.923C227.758 5.73721 222.743 0.722607 216.556 0.722607H152.962Z" fill="url(#paint7_radial_5237_110959)" shape-rendering="crispEdges"/>
<path fill-rule="evenodd" clip-rule="evenodd" d="M227.758 11.923C227.758 5.33812 233.096 0 239.682 0H303.276C309.862 0 315.2 5.33812 315.2 11.923V75.5125C315.2 82.0974 309.862 87.4355 303.276 87.4355H239.682C233.096 87.4355 227.758 82.0974 227.758 75.5125V11.923ZM239.682 0.722607C233.495 0.722607 228.48 5.7372 228.48 11.923V75.5125C228.48 81.6983 233.495 86.7129 239.682 86.7129H303.276C309.462 86.7129 314.477 81.6983 314.477 75.5125V11.923C314.477 5.73721 309.462 0.722607 303.276 0.722607H239.682Z" fill="url(#paint8_radial_5237_110959)" shape-rendering="crispEdges"/>
<path fill-rule="evenodd" clip-rule="evenodd" d="M314.477 11.923C314.477 5.33812 319.816 0 326.401 0H389.996C396.581 0 401.92 5.33812 401.92 11.923V75.5125C401.92 82.0974 396.581 87.4355 389.996 87.4355H326.401C319.816 87.4355 314.477 82.0974 314.477 75.5125V11.923ZM326.401 0.722607C320.215 0.722607 315.2 5.7372 315.2 11.923V75.5125C315.2 81.6983 320.215 86.7129 326.401 86.7129H389.996C396.182 86.7129 401.197 81.6983 401.197 75.5125V11.923C401.197 5.73721 396.182 0.722607 389.996 0.722607H326.401Z" fill="url(#paint9_radial_5237_110959)" shape-rendering="crispEdges"/>
<path fill-rule="evenodd" clip-rule="evenodd" d="M401.197 11.923C401.197 5.33812 406.536 0 413.121 0H476.716C483.301 0 488.64 5.33812 488.64 11.923V75.5125C488.64 82.0974 483.301 87.4355 476.716 87.4355H413.121C406.536 87.4355 401.197 82.0974 401.197 75.5125V11.923ZM413.121 0.722607C406.935 0.722607 401.92 5.7372 401.92 11.923V75.5125C401.92 81.6983 406.935 86.7129 413.121 86.7129H476.716C482.902 86.7129 487.917 81.6983 487.917 75.5125V11.923C487.917 5.73721 482.902 0.722607 476.716 0.722607H413.121Z" fill="url(#paint10_radial_5237_110959)" shape-rendering="crispEdges"/>
<path fill-rule="evenodd" clip-rule="evenodd" d="M487.917 11.923C487.917 5.33812 493.255 0 499.841 0H563.435C570.021 0 575.359 5.33812 575.359 11.923V75.5125C575.359 82.0974 570.021 87.4355 563.435 87.4355H499.841C493.255 87.4355 487.917 82.0974 487.917 75.5125V11.923ZM499.841 0.722607C493.655 0.722607 488.64 5.7372 488.64 11.923V75.5125C488.64 81.6983 493.655 86.7129 499.841 86.7129H563.435C569.622 86.7129 574.637 81.6983 574.637 75.5125V11.923C574.637 5.73721 569.622 0.722607 563.435 0.722607H499.841Z" fill="url(#paint11_radial_5237_110959)" shape-rendering="crispEdges"/>
<path fill-rule="evenodd" clip-rule="evenodd" d="M574.637 11.923C574.637 5.33812 579.975 0 586.561 0H650.155C656.74 0 662.079 5.33812 662.079 11.923V75.5125C662.079 82.0974 656.74 87.4355 650.155 87.4355H586.561C579.975 87.4355 574.637 82.0974 574.637 75.5125V11.923ZM586.561 0.722607C580.374 0.722607 575.359 5.7372 575.359 11.923V75.5125C575.359 81.6983 580.374 86.7129 586.561 86.7129H650.155C656.341 86.7129 661.356 81.6983 661.356 75.5125V11.923C661.356 5.73721 656.341 0.722607 650.155 0.722607H586.561Z" fill="url(#paint12_radial_5237_110959)" shape-rendering="crispEdges"/>
<path fill-rule="evenodd" clip-rule="evenodd" d="M661.356 11.923C661.356 5.33812 666.695 0 673.28 0H736.875C743.46 0 748.799 5.33812 748.799 11.923V75.5125C748.799 82.0974 743.46 87.4355 736.875 87.4355H673.28C666.695 87.4355 661.356 82.0974 661.356 75.5125V11.923ZM673.28 0.722607C667.094 0.722607 662.079 5.7372 662.079 11.923V75.5125C662.079 81.6983 667.094 86.7129 673.28 86.7129H736.875C743.061 86.7129 748.076 81.6983 748.076 75.5125V11.923C748.076 5.73721 743.061 0.722607 736.875 0.722607H673.28Z" fill="url(#paint13_radial_5237_110959)" shape-rendering="crispEdges"/>
<path fill-rule="evenodd" clip-rule="evenodd" d="M-466 98.6359C-466 92.051 -460.661 86.7129 -454.076 86.7129H-390.482C-383.896 86.7129 -378.558 92.051 -378.558 98.6359V162.225C-378.558 168.81 -383.896 174.148 -390.482 174.148H-454.076C-460.661 174.148 -466 168.81 -466 162.225V98.6359ZM-454.076 87.4355C-460.262 87.4355 -465.277 92.4501 -465.277 98.6359V162.225C-465.277 168.411 -460.262 173.426 -454.076 173.426H-390.482C-384.295 173.426 -379.28 168.411 -379.28 162.225V98.6359C-379.28 92.4501 -384.295 87.4355 -390.482 87.4355H-454.076Z" fill="url(#paint14_radial_5237_110959)" shape-rendering="crispEdges"/>
<path fill-rule="evenodd" clip-rule="evenodd" d="M-379.28 98.6359C-379.28 92.051 -373.942 86.7129 -367.356 86.7129H-303.762C-297.176 86.7129 -291.838 92.051 -291.838 98.6359V162.225C-291.838 168.81 -297.176 174.148 -303.762 174.148H-367.356C-373.942 174.148 -379.28 168.81 -379.28 162.225V98.6359ZM-367.356 87.4355C-373.543 87.4355 -378.558 92.4501 -378.558 98.6359V162.225C-378.558 168.411 -373.543 173.426 -367.356 173.426H-303.762C-297.576 173.426 -292.561 168.411 -292.561 162.225V98.6359C-292.561 92.4501 -297.576 87.4355 -303.762 87.4355H-367.356Z" fill="url(#paint15_radial_5237_110959)" shape-rendering="crispEdges"/>
<path fill-rule="evenodd" clip-rule="evenodd" d="M-292.561 98.6359C-292.561 92.051 -287.222 86.7129 -280.637 86.7129H-217.042C-210.457 86.7129 -205.118 92.051 -205.118 98.6359V162.225C-205.118 168.81 -210.457 174.148 -217.042 174.148H-280.637C-287.222 174.148 -292.561 168.81 -292.561 162.225V98.6359ZM-280.637 87.4355C-286.823 87.4355 -291.838 92.4501 -291.838 98.6359V162.225C-291.838 168.411 -286.823 173.426 -280.637 173.426H-217.042C-210.856 173.426 -205.841 168.411 -205.841 162.225V98.6359C-205.841 92.4501 -210.856 87.4355 -217.042 87.4355H-280.637Z" fill="url(#paint16_radial_5237_110959)" shape-rendering="crispEdges"/>
<path fill-rule="evenodd" clip-rule="evenodd" d="M-205.841 98.6359C-205.841 92.051 -200.502 86.7129 -193.917 86.7129H-130.322C-123.737 86.7129 -118.398 92.051 -118.398 98.6359V162.225C-118.398 168.81 -123.737 174.148 -130.322 174.148H-193.917C-200.502 174.148 -205.841 168.81 -205.841 162.225V98.6359ZM-193.917 87.4355C-200.103 87.4355 -205.118 92.4501 -205.118 98.6359V162.225C-205.118 168.411 -200.103 173.426 -193.917 173.426H-130.322C-124.136 173.426 -119.121 168.411 -119.121 162.225V98.6359C-119.121 92.4501 -124.136 87.4355 -130.322 87.4355H-193.917Z" fill="url(#paint17_radial_5237_110959)" shape-rendering="crispEdges"/>
<path fill-rule="evenodd" clip-rule="evenodd" d="M-119.121 98.6359C-119.121 92.051 -113.783 86.7129 -107.197 86.7129H-43.6027C-37.0173 86.7129 -31.6788 92.051 -31.6788 98.6359V162.225C-31.6788 168.81 -37.0173 174.148 -43.6027 174.148H-107.197C-113.783 174.148 -119.121 168.81 -119.121 162.225V98.6359ZM-107.197 87.4355C-113.383 87.4355 -118.398 92.4501 -118.398 98.6359V162.225C-118.398 168.411 -113.383 173.426 -107.197 173.426H-43.6027C-37.4164 173.426 -32.4014 168.411 -32.4014 162.225V98.6359C-32.4014 92.4501 -37.4164 87.4355 -43.6027 87.4355H-107.197Z" fill="url(#paint18_radial_5237_110959)" shape-rendering="crispEdges"/>
<path fill-rule="evenodd" clip-rule="evenodd" d="M-32.4014 98.6359C-32.4014 92.051 -27.0629 86.7129 -20.4775 86.7129H43.117C49.7024 86.7129 55.041 92.051 55.041 98.6359V162.225C55.041 168.81 49.7024 174.148 43.117 174.148H-20.4775C-27.0629 174.148 -32.4014 168.81 -32.4014 162.225V98.6359ZM-20.4775 87.4355C-26.6638 87.4355 -31.6788 92.4501 -31.6788 98.6359V162.225C-31.6788 168.411 -26.6638 173.426 -20.4775 173.426H43.117C49.3033 173.426 54.3183 168.411 54.3183 162.225V98.6359C54.3183 92.4501 49.3033 87.4355 43.117 87.4355H-20.4775Z" fill="url(#paint19_radial_5237_110959)" shape-rendering="crispEdges"/>
<path fill-rule="evenodd" clip-rule="evenodd" d="M54.3183 98.6359C54.3183 92.051 59.6568 86.7129 66.2423 86.7129H129.837C136.422 86.7129 141.761 92.051 141.761 98.6359V162.225C141.761 168.81 136.422 174.148 129.837 174.148H66.2423C59.6568 174.148 54.3183 168.81 54.3183 162.225V98.6359ZM66.2423 87.4355C60.056 87.4355 55.041 92.4501 55.041 98.6359V162.225C55.041 168.411 60.0559 173.426 66.2423 173.426H129.837C136.023 173.426 141.038 168.411 141.038 162.225V98.6359C141.038 92.4501 136.023 87.4355 129.837 87.4355H66.2423Z" fill="url(#paint20_radial_5237_110959)" shape-rendering="crispEdges"/>
<path fill-rule="evenodd" clip-rule="evenodd" d="M141.038 98.6359C141.038 92.051 146.377 86.7129 152.962 86.7129H216.556C223.142 86.7129 228.48 92.051 228.48 98.6359V162.225C228.48 168.81 223.142 174.148 216.556 174.148H152.962C146.377 174.148 141.038 168.81 141.038 162.225V98.6359ZM152.962 87.4355C146.776 87.4355 141.761 92.4501 141.761 98.6359V162.225C141.761 168.411 146.776 173.426 152.962 173.426H216.556C222.743 173.426 227.758 168.411 227.758 162.225V98.6359C227.758 92.4501 222.743 87.4355 216.556 87.4355H152.962Z" fill="url(#paint21_radial_5237_110959)" shape-rendering="crispEdges"/>
<path fill-rule="evenodd" clip-rule="evenodd" d="M227.758 98.6359C227.758 92.051 233.096 86.7129 239.682 86.7129H303.276C309.862 86.7129 315.2 92.051 315.2 98.6359V162.225C315.2 168.81 309.862 174.148 303.276 174.148H239.682C233.096 174.148 227.758 168.81 227.758 162.225V98.6359ZM239.682 87.4355C233.495 87.4355 228.48 92.4501 228.48 98.6359V162.225C228.48 168.411 233.495 173.426 239.682 173.426H303.276C309.462 173.426 314.477 168.411 314.477 162.225V98.6359C314.477 92.4501 309.462 87.4355 303.276 87.4355H239.682Z" fill="url(#paint22_radial_5237_110959)" shape-rendering="crispEdges"/>
<path fill-rule="evenodd" clip-rule="evenodd" d="M314.477 98.6359C314.477 92.051 319.816 86.7129 326.401 86.7129H389.996C396.581 86.7129 401.92 92.051 401.92 98.6359V162.225C401.92 168.81 396.581 174.148 389.996 174.148H326.401C319.816 174.148 314.477 168.81 314.477 162.225V98.6359ZM326.401 87.4355C320.215 87.4355 315.2 92.4501 315.2 98.6359V162.225C315.2 168.411 320.215 173.426 326.401 173.426H389.996C396.182 173.426 401.197 168.411 401.197 162.225V98.6359C401.197 92.4501 396.182 87.4355 389.996 87.4355H326.401Z" fill="url(#paint23_radial_5237_110959)" shape-rendering="crispEdges"/>
<path fill-rule="evenodd" clip-rule="evenodd" d="M401.197 98.6359C401.197 92.051 406.536 86.7129 413.121 86.7129H476.716C483.301 86.7129 488.64 92.051 488.64 98.6359V162.225C488.64 168.81 483.301 174.148 476.716 174.148H413.121C406.536 174.148 401.197 168.81 401.197 162.225V98.6359ZM413.121 87.4355C406.935 87.4355 401.92 92.4501 401.92 98.6359V162.225C401.92 168.411 406.935 173.426 413.121 173.426H476.716C482.902 173.426 487.917 168.411 487.917 162.225V98.6359C487.917 92.4501 482.902 87.4355 476.716 87.4355H413.121Z" fill="url(#paint24_radial_5237_110959)" shape-rendering="crispEdges"/>
<path fill-rule="evenodd" clip-rule="evenodd" d="M487.917 98.6359C487.917 92.051 493.255 86.7129 499.841 86.7129H563.435C570.021 86.7129 575.359 92.051 575.359 98.6359V162.225C575.359 168.81 570.021 174.148 563.435 174.148H499.841C493.255 174.148 487.917 168.81 487.917 162.225V98.6359ZM499.841 87.4355C493.655 87.4355 488.64 92.4501 488.64 98.6359V162.225C488.64 168.411 493.655 173.426 499.841 173.426H563.435C569.622 173.426 574.637 168.411 574.637 162.225V98.6359C574.637 92.4501 569.622 87.4355 563.435 87.4355H499.841Z" fill="url(#paint25_radial_5237_110959)" shape-rendering="crispEdges"/>
<path fill-rule="evenodd" clip-rule="evenodd" d="M574.637 98.6359C574.637 92.051 579.975 86.7129 586.561 86.7129H650.155C656.74 86.7129 662.079 92.051 662.079 98.6359V162.225C662.079 168.81 656.74 174.148 650.155 174.148H586.561C579.975 174.148 574.637 168.81 574.637 162.225V98.6359ZM586.561 87.4355C580.374 87.4355 575.359 92.4501 575.359 98.6359V162.225C575.359 168.411 580.374 173.426 586.561 173.426H650.155C656.341 173.426 661.356 168.411 661.356 162.225V98.6359C661.356 92.4501 656.341 87.4355 650.155 87.4355H586.561Z" fill="url(#paint26_radial_5237_110959)" shape-rendering="crispEdges"/>
<path fill-rule="evenodd" clip-rule="evenodd" d="M661.356 98.6359C661.356 92.051 666.695 86.7129 673.28 86.7129H736.875C743.46 86.7129 748.799 92.051 748.799 98.6359V162.225C748.799 168.81 743.46 174.148 736.875 174.148H673.28C666.695 174.148 661.356 168.81 661.356 162.225V98.6359ZM673.28 87.4355C667.094 87.4355 662.079 92.4501 662.079 98.6359V162.225C662.079 168.411 667.094 173.426 673.28 173.426H736.875C743.061 173.426 748.076 168.411 748.076 162.225V98.6359C748.076 92.4501 743.061 87.4355 736.875 87.4355H673.28Z" fill="url(#paint27_radial_5237_110959)" shape-rendering="crispEdges"/>
<path fill-rule="evenodd" clip-rule="evenodd" d="M-466 185.349C-466 178.764 -460.661 173.426 -454.076 173.426H-390.482C-383.896 173.426 -378.558 178.764 -378.558 185.349V248.938C-378.558 255.523 -383.896 260.861 -390.482 260.861H-454.076C-460.661 260.861 -466 255.523 -466 248.938V185.349ZM-454.076 174.148C-460.262 174.148 -465.277 179.163 -465.277 185.349V248.938C-465.277 255.124 -460.262 260.139 -454.076 260.139H-390.482C-384.295 260.139 -379.28 255.124 -379.28 248.938V185.349C-379.28 179.163 -384.295 174.148 -390.482 174.148H-454.076Z" fill="url(#paint28_radial_5237_110959)" shape-rendering="crispEdges"/>
<path fill-rule="evenodd" clip-rule="evenodd" d="M-379.28 185.349C-379.28 178.764 -373.942 173.426 -367.356 173.426H-303.762C-297.176 173.426 -291.838 178.764 -291.838 185.349V248.938C-291.838 255.523 -297.176 260.861 -303.762 260.861H-367.356C-373.942 260.861 -379.28 255.523 -379.28 248.938V185.349ZM-367.356 174.148C-373.543 174.148 -378.558 179.163 -378.558 185.349V248.938C-378.558 255.124 -373.543 260.139 -367.356 260.139H-303.762C-297.576 260.139 -292.561 255.124 -292.561 248.938V185.349C-292.561 179.163 -297.576 174.148 -303.762 174.148H-367.356Z" fill="url(#paint29_radial_5237_110959)" shape-rendering="crispEdges"/>
<path fill-rule="evenodd" clip-rule="evenodd" d="M-292.561 185.349C-292.561 178.764 -287.222 173.426 -280.637 173.426H-217.042C-210.457 173.426 -205.118 178.764 -205.118 185.349V248.938C-205.118 255.523 -210.457 260.861 -217.042 260.861H-280.637C-287.222 260.861 -292.561 255.523 -292.561 248.938V185.349ZM-280.637 174.148C-286.823 174.148 -291.838 179.163 -291.838 185.349V248.938C-291.838 255.124 -286.823 260.139 -280.637 260.139H-217.042C-210.856 260.139 -205.841 255.124 -205.841 248.938V185.349C-205.841 179.163 -210.856 174.148 -217.042 174.148H-280.637Z" fill="url(#paint30_radial_5237_110959)" shape-rendering="crispEdges"/>
<path fill-rule="evenodd" clip-rule="evenodd" d="M-205.841 185.349C-205.841 178.764 -200.502 173.426 -193.917 173.426H-130.322C-123.737 173.426 -118.398 178.764 -118.398 185.349V248.938C-118.398 255.523 -123.737 260.861 -130.322 260.861H-193.917C-200.502 260.861 -205.841 255.523 -205.841 248.938V185.349ZM-193.917 174.148C-200.103 174.148 -205.118 179.163 -205.118 185.349V248.938C-205.118 255.124 -200.103 260.139 -193.917 260.139H-130.322C-124.136 260.139 -119.121 255.124 -119.121 248.938V185.349C-119.121 179.163 -124.136 174.148 -130.322 174.148H-193.917Z" fill="url(#paint31_radial_5237_110959)" shape-rendering="crispEdges"/>
<path fill-rule="evenodd" clip-rule="evenodd" d="M-119.121 185.349C-119.121 178.764 -113.783 173.426 -107.197 173.426H-43.6027C-37.0173 173.426 -31.6788 178.764 -31.6788 185.349V248.938C-31.6788 255.523 -37.0173 260.861 -43.6027 260.861H-107.197C-113.783 260.861 -119.121 255.523 -119.121 248.938V185.349ZM-107.197 174.148C-113.383 174.148 -118.398 179.163 -118.398 185.349V248.938C-118.398 255.124 -113.383 260.139 -107.197 260.139H-43.6027C-37.4164 260.139 -32.4014 255.124 -32.4014 248.938V185.349C-32.4014 179.163 -37.4164 174.148 -43.6027 174.148H-107.197Z" fill="url(#paint32_radial_5237_110959)" shape-rendering="crispEdges"/>
<path fill-rule="evenodd" clip-rule="evenodd" d="M-32.4014 185.349C-32.4014 178.764 -27.0629 173.426 -20.4775 173.426H43.117C49.7024 173.426 55.041 178.764 55.041 185.349V248.938C55.041 255.523 49.7024 260.861 43.117 260.861H-20.4775C-27.0629 260.861 -32.4014 255.523 -32.4014 248.938V185.349ZM-20.4775 174.148C-26.6638 174.148 -31.6788 179.163 -31.6788 185.349V248.938C-31.6788 255.124 -26.6638 260.139 -20.4775 260.139H43.117C49.3033 260.139 54.3183 255.124 54.3183 248.938V185.349C54.3183 179.163 49.3033 174.148 43.117 174.148H-20.4775Z" fill="url(#paint33_radial_5237_110959)" shape-rendering="crispEdges"/>
<path fill-rule="evenodd" clip-rule="evenodd" d="M54.3183 185.349C54.3183 178.764 59.6568 173.426 66.2423 173.426H129.837C136.422 173.426 141.761 178.764 141.761 185.349V248.938C141.761 255.523 136.422 260.861 129.837 260.861H66.2423C59.6568 260.861 54.3183 255.523 54.3183 248.938V185.349ZM66.2423 174.148C60.056 174.148 55.041 179.163 55.041 185.349V248.938C55.041 255.124 60.0559 260.139 66.2423 260.139H129.837C136.023 260.139 141.038 255.124 141.038 248.938V185.349C141.038 179.163 136.023 174.148 129.837 174.148H66.2423Z" fill="url(#paint34_radial_5237_110959)" shape-rendering="crispEdges"/>
<path fill-rule="evenodd" clip-rule="evenodd" d="M141.038 185.349C141.038 178.764 146.377 173.426 152.962 173.426H216.556C223.142 173.426 228.48 178.764 228.48 185.349V248.938C228.48 255.523 223.142 260.861 216.556 260.861H152.962C146.377 260.861 141.038 255.523 141.038 248.938V185.349ZM152.962 174.148C146.776 174.148 141.761 179.163 141.761 185.349V248.938C141.761 255.124 146.776 260.139 152.962 260.139H216.556C222.743 260.139 227.758 255.124 227.758 248.938V185.349C227.758 179.163 222.743 174.148 216.556 174.148H152.962Z" fill="url(#paint35_radial_5237_110959)" shape-rendering="crispEdges"/>
<path fill-rule="evenodd" clip-rule="evenodd" d="M227.758 185.349C227.758 178.764 233.096 173.426 239.682 173.426H303.276C309.862 173.426 315.2 178.764 315.2 185.349V248.938C315.2 255.523 309.862 260.861 303.276 260.861H239.682C233.096 260.861 227.758 255.523 227.758 248.938V185.349ZM239.682 174.148C233.495 174.148 228.48 179.163 228.48 185.349V248.938C228.48 255.124 233.495 260.139 239.682 260.139H303.276C309.462 260.139 314.477 255.124 314.477 248.938V185.349C314.477 179.163 309.462 174.148 303.276 174.148H239.682Z" fill="url(#paint36_radial_5237_110959)" shape-rendering="crispEdges"/>
<path fill-rule="evenodd" clip-rule="evenodd" d="M314.477 185.349C314.477 178.764 319.816 173.426 326.401 173.426H389.996C396.581 173.426 401.92 178.764 401.92 185.349V248.938C401.92 255.523 396.581 260.861 389.996 260.861H326.401C319.816 260.861 314.477 255.523 314.477 248.938V185.349ZM326.401 174.148C320.215 174.148 315.2 179.163 315.2 185.349V248.938C315.2 255.124 320.215 260.139 326.401 260.139H389.996C396.182 260.139 401.197 255.124 401.197 248.938V185.349C401.197 179.163 396.182 174.148 389.996 174.148H326.401Z" fill="url(#paint37_radial_5237_110959)" shape-rendering="crispEdges"/>
<path fill-rule="evenodd" clip-rule="evenodd" d="M401.197 185.349C401.197 178.764 406.536 173.426 413.121 173.426H476.716C483.301 173.426 488.64 178.764 488.64 185.349V248.938C488.64 255.523 483.301 260.861 476.716 260.861H413.121C406.536 260.861 401.197 255.523 401.197 248.938V185.349ZM413.121 174.148C406.935 174.148 401.92 179.163 401.92 185.349V248.938C401.92 255.124 406.935 260.139 413.121 260.139H476.716C482.902 260.139 487.917 255.124 487.917 248.938V185.349C487.917 179.163 482.902 174.148 476.716 174.148H413.121Z" fill="url(#paint38_radial_5237_110959)" shape-rendering="crispEdges"/>
<path fill-rule="evenodd" clip-rule="evenodd" d="M487.917 185.349C487.917 178.764 493.255 173.426 499.841 173.426H563.435C570.021 173.426 575.359 178.764 575.359 185.349V248.938C575.359 255.523 570.021 260.861 563.435 260.861H499.841C493.255 260.861 487.917 255.523 487.917 248.938V185.349ZM499.841 174.148C493.655 174.148 488.64 179.163 488.64 185.349V248.938C488.64 255.124 493.655 260.139 499.841 260.139H563.435C569.622 260.139 574.637 255.124 574.637 248.938V185.349C574.637 179.163 569.622 174.148 563.435 174.148H499.841Z" fill="url(#paint39_radial_5237_110959)" shape-rendering="crispEdges"/>
<path fill-rule="evenodd" clip-rule="evenodd" d="M574.637 185.349C574.637 178.764 579.975 173.426 586.561 173.426H650.155C656.74 173.426 662.079 178.764 662.079 185.349V248.938C662.079 255.523 656.74 260.861 650.155 260.861H586.561C579.975 260.861 574.637 255.523 574.637 248.938V185.349ZM586.561 174.148C580.374 174.148 575.359 179.163 575.359 185.349V248.938C575.359 255.124 580.374 260.139 586.561 260.139H650.155C656.341 260.139 661.356 255.124 661.356 248.938V185.349C661.356 179.163 656.341 174.148 650.155 174.148H586.561Z" fill="url(#paint40_radial_5237_110959)" shape-rendering="crispEdges"/>
<path fill-rule="evenodd" clip-rule="evenodd" d="M661.356 185.349C661.356 178.764 666.695 173.426 673.28 173.426H736.875C743.46 173.426 748.799 178.764 748.799 185.349V248.938C748.799 255.523 743.46 260.861 736.875 260.861H673.28C666.695 260.861 661.356 255.523 661.356 248.938V185.349ZM673.28 174.148C667.094 174.148 662.079 179.163 662.079 185.349V248.938C662.079 255.124 667.094 260.139 673.28 260.139H736.875C743.061 260.139 748.076 255.124 748.076 248.938V185.349C748.076 179.163 743.061 174.148 736.875 174.148H673.28Z" fill="url(#paint41_radial_5237_110959)" shape-rendering="crispEdges"/>
<path fill-rule="evenodd" clip-rule="evenodd" d="M-466 272.062C-466 265.477 -460.661 260.139 -454.076 260.139H-390.482C-383.896 260.139 -378.558 265.477 -378.558 272.062V335.651C-378.558 342.236 -383.896 347.574 -390.482 347.574H-454.076C-460.661 347.574 -466 342.236 -466 335.651V272.062ZM-454.076 260.861C-460.262 260.861 -465.277 265.876 -465.277 272.062V335.651C-465.277 341.837 -460.262 346.852 -454.076 346.852H-390.482C-384.295 346.852 -379.28 341.837 -379.28 335.651V272.062C-379.28 265.876 -384.295 260.861 -390.482 260.861H-454.076Z" fill="url(#paint42_radial_5237_110959)" shape-rendering="crispEdges"/>
<path fill-rule="evenodd" clip-rule="evenodd" d="M-379.28 272.062C-379.28 265.477 -373.942 260.139 -367.356 260.139H-303.762C-297.176 260.139 -291.838 265.477 -291.838 272.062V335.651C-291.838 342.236 -297.176 347.574 -303.762 347.574H-367.356C-373.942 347.574 -379.28 342.236 -379.28 335.651V272.062ZM-367.356 260.861C-373.543 260.861 -378.558 265.876 -378.558 272.062V335.651C-378.558 341.837 -373.543 346.852 -367.356 346.852H-303.762C-297.576 346.852 -292.561 341.837 -292.561 335.651V272.062C-292.561 265.876 -297.576 260.861 -303.762 260.861H-367.356Z" fill="url(#paint43_radial_5237_110959)" shape-rendering="crispEdges"/>
<path fill-rule="evenodd" clip-rule="evenodd" d="M-292.561 272.062C-292.561 265.477 -287.222 260.139 -280.637 260.139H-217.042C-210.457 260.139 -205.118 265.477 -205.118 272.062V335.651C-205.118 342.236 -210.457 347.574 -217.042 347.574H-280.637C-287.222 347.574 -292.561 342.236 -292.561 335.651V272.062ZM-280.637 260.861C-286.823 260.861 -291.838 265.876 -291.838 272.062V335.651C-291.838 341.837 -286.823 346.852 -280.637 346.852H-217.042C-210.856 346.852 -205.841 341.837 -205.841 335.651V272.062C-205.841 265.876 -210.856 260.861 -217.042 260.861H-280.637Z" fill="url(#paint44_radial_5237_110959)" shape-rendering="crispEdges"/>
<path fill-rule="evenodd" clip-rule="evenodd" d="M-205.841 272.062C-205.841 265.477 -200.502 260.139 -193.917 260.139H-130.322C-123.737 260.139 -118.398 265.477 -118.398 272.062V335.651C-118.398 342.236 -123.737 347.574 -130.322 347.574H-193.917C-200.502 347.574 -205.841 342.236 -205.841 335.651V272.062ZM-193.917 260.861C-200.103 260.861 -205.118 265.876 -205.118 272.062V335.651C-205.118 341.837 -200.103 346.852 -193.917 346.852H-130.322C-124.136 346.852 -119.121 341.837 -119.121 335.651V272.062C-119.121 265.876 -124.136 260.861 -130.322 260.861H-193.917Z" fill="url(#paint45_radial_5237_110959)" shape-rendering="crispEdges"/>
<path fill-rule="evenodd" clip-rule="evenodd" d="M-119.121 272.062C-119.121 265.477 -113.783 260.139 -107.197 260.139H-43.6027C-37.0173 260.139 -31.6788 265.477 -31.6788 272.062V335.651C-31.6788 342.236 -37.0173 347.574 -43.6027 347.574H-107.197C-113.783 347.574 -119.121 342.236 -119.121 335.651V272.062ZM-107.197 260.861C-113.383 260.861 -118.398 265.876 -118.398 272.062V335.651C-118.398 341.837 -113.383 346.852 -107.197 346.852H-43.6027C-37.4164 346.852 -32.4014 341.837 -32.4014 335.651V272.062C-32.4014 265.876 -37.4164 260.861 -43.6027 260.861H-107.197Z" fill="url(#paint46_radial_5237_110959)" shape-rendering="crispEdges"/>
<path fill-rule="evenodd" clip-rule="evenodd" d="M-32.4014 272.062C-32.4014 265.477 -27.0629 260.139 -20.4775 260.139H43.117C49.7024 260.139 55.041 265.477 55.041 272.062V335.651C55.041 342.236 49.7024 347.574 43.117 347.574H-20.4775C-27.0629 347.574 -32.4014 342.236 -32.4014 335.651V272.062ZM-20.4775 260.861C-26.6638 260.861 -31.6788 265.876 -31.6788 272.062V335.651C-31.6788 341.837 -26.6638 346.852 -20.4775 346.852H43.117C49.3033 346.852 54.3183 341.837 54.3183 335.651V272.062C54.3183 265.876 49.3033 260.861 43.117 260.861H-20.4775Z" fill="url(#paint47_radial_5237_110959)" shape-rendering="crispEdges"/>
<path fill-rule="evenodd" clip-rule="evenodd" d="M54.3183 272.062C54.3183 265.477 59.6568 260.139 66.2423 260.139H129.837C136.422 260.139 141.761 265.477 141.761 272.062V335.651C141.761 342.236 136.422 347.574 129.837 347.574H66.2423C59.6568 347.574 54.3183 342.236 54.3183 335.651V272.062ZM66.2423 260.861C60.056 260.861 55.041 265.876 55.041 272.062V335.651C55.041 341.837 60.0559 346.852 66.2423 346.852H129.837C136.023 346.852 141.038 341.837 141.038 335.651V272.062C141.038 265.876 136.023 260.861 129.837 260.861H66.2423Z" fill="url(#paint48_radial_5237_110959)" shape-rendering="crispEdges"/>
<path fill-rule="evenodd" clip-rule="evenodd" d="M141.038 272.062C141.038 265.477 146.377 260.139 152.962 260.139H216.556C223.142 260.139 228.48 265.477 228.48 272.062V335.651C228.48 342.236 223.142 347.574 216.556 347.574H152.962C146.377 347.574 141.038 342.236 141.038 335.651V272.062ZM152.962 260.861C146.776 260.861 141.761 265.876 141.761 272.062V335.651C141.761 341.837 146.776 346.852 152.962 346.852H216.556C222.743 346.852 227.758 341.837 227.758 335.651V272.062C227.758 265.876 222.743 260.861 216.556 260.861H152.962Z" fill="url(#paint49_radial_5237_110959)" shape-rendering="crispEdges"/>
<path fill-rule="evenodd" clip-rule="evenodd" d="M227.758 272.062C227.758 265.477 233.096 260.139 239.682 260.139H303.276C309.862 260.139 315.2 265.477 315.2 272.062V335.651C315.2 342.236 309.862 347.574 303.276 347.574H239.682C233.096 347.574 227.758 342.236 227.758 335.651V272.062ZM239.682 260.861C233.495 260.861 228.48 265.876 228.48 272.062V335.651C228.48 341.837 233.495 346.852 239.682 346.852H303.276C309.462 346.852 314.477 341.837 314.477 335.651V272.062C314.477 265.876 309.462 260.861 303.276 260.861H239.682Z" fill="url(#paint50_radial_5237_110959)" shape-rendering="crispEdges"/>
<path fill-rule="evenodd" clip-rule="evenodd" d="M314.477 272.062C314.477 265.477 319.816 260.139 326.401 260.139H389.996C396.581 260.139 401.92 265.477 401.92 272.062V335.651C401.92 342.236 396.581 347.574 389.996 347.574H326.401C319.816 347.574 314.477 342.236 314.477 335.651V272.062ZM326.401 260.861C320.215 260.861 315.2 265.876 315.2 272.062V335.651C315.2 341.837 320.215 346.852 326.401 346.852H389.996C396.182 346.852 401.197 341.837 401.197 335.651V272.062C401.197 265.876 396.182 260.861 389.996 260.861H326.401Z" fill="url(#paint51_radial_5237_110959)" shape-rendering="crispEdges"/>
<path fill-rule="evenodd" clip-rule="evenodd" d="M401.197 272.062C401.197 265.477 406.536 260.139 413.121 260.139H476.716C483.301 260.139 488.64 265.477 488.64 272.062V335.651C488.64 342.236 483.301 347.574 476.716 347.574H413.121C406.536 347.574 401.197 342.236 401.197 335.651V272.062ZM413.121 260.861C406.935 260.861 401.92 265.876 401.92 272.062V335.651C401.92 341.837 406.935 346.852 413.121 346.852H476.716C482.902 346.852 487.917 341.837 487.917 335.651V272.062C487.917 265.876 482.902 260.861 476.716 260.861H413.121Z" fill="url(#paint52_radial_5237_110959)" shape-rendering="crispEdges"/>
<path fill-rule="evenodd" clip-rule="evenodd" d="M487.917 272.062C487.917 265.477 493.255 260.139 499.841 260.139H563.435C570.021 260.139 575.359 265.477 575.359 272.062V335.651C575.359 342.236 570.021 347.574 563.435 347.574H499.841C493.255 347.574 487.917 342.236 487.917 335.651V272.062ZM499.841 260.861C493.655 260.861 488.64 265.876 488.64 272.062V335.651C488.64 341.837 493.655 346.852 499.841 346.852H563.435C569.622 346.852 574.637 341.837 574.637 335.651V272.062C574.637 265.876 569.622 260.861 563.435 260.861H499.841Z" fill="url(#paint53_radial_5237_110959)" shape-rendering="crispEdges"/>
<path fill-rule="evenodd" clip-rule="evenodd" d="M574.637 272.062C574.637 265.477 579.975 260.139 586.561 260.139H650.155C656.74 260.139 662.079 265.477 662.079 272.062V335.651C662.079 342.236 656.74 347.574 650.155 347.574H586.561C579.975 347.574 574.637 342.236 574.637 335.651V272.062ZM586.561 260.861C580.374 260.861 575.359 265.876 575.359 272.062V335.651C575.359 341.837 580.374 346.852 586.561 346.852H650.155C656.341 346.852 661.356 341.837 661.356 335.651V272.062C661.356 265.876 656.341 260.861 650.155 260.861H586.561Z" fill="url(#paint54_radial_5237_110959)" shape-rendering="crispEdges"/>
<path fill-rule="evenodd" clip-rule="evenodd" d="M661.356 272.062C661.356 265.477 666.695 260.139 673.28 260.139H736.875C743.46 260.139 748.799 265.477 748.799 272.062V335.651C748.799 342.236 743.46 347.574 736.875 347.574H673.28C666.695 347.574 661.356 342.236 661.356 335.651V272.062ZM673.28 260.861C667.094 260.861 662.079 265.876 662.079 272.062V335.651C662.079 341.837 667.094 346.852 673.28 346.852H736.875C743.061 346.852 748.076 341.837 748.076 335.651V272.062C748.076 265.876 743.061 260.861 736.875 260.861H673.28Z" fill="url(#paint55_radial_5237_110959)" shape-rendering="crispEdges"/>
<path fill-rule="evenodd" clip-rule="evenodd" d="M-466 358.775C-466 352.19 -460.661 346.852 -454.076 346.852H-390.482C-383.896 346.852 -378.558 352.19 -378.558 358.775V422.364C-378.558 428.949 -383.896 434.287 -390.482 434.287H-454.076C-460.661 434.287 -466 428.949 -466 422.364V358.775ZM-454.076 347.574C-460.262 347.574 -465.277 352.589 -465.277 358.775V422.364C-465.277 428.55 -460.262 433.564 -454.076 433.564H-390.482C-384.295 433.564 -379.28 428.55 -379.28 422.364V358.775C-379.28 352.589 -384.295 347.574 -390.482 347.574H-454.076Z" fill="url(#paint56_radial_5237_110959)" shape-rendering="crispEdges"/>
<path fill-rule="evenodd" clip-rule="evenodd" d="M-379.28 358.775C-379.28 352.19 -373.942 346.852 -367.356 346.852H-303.762C-297.176 346.852 -291.838 352.19 -291.838 358.775V422.364C-291.838 428.949 -297.176 434.287 -303.762 434.287H-367.356C-373.942 434.287 -379.28 428.949 -379.28 422.364V358.775ZM-367.356 347.574C-373.543 347.574 -378.558 352.589 -378.558 358.775V422.364C-378.558 428.55 -373.543 433.564 -367.356 433.564H-303.762C-297.576 433.564 -292.561 428.55 -292.561 422.364V358.775C-292.561 352.589 -297.576 347.574 -303.762 347.574H-367.356Z" fill="url(#paint57_radial_5237_110959)" shape-rendering="crispEdges"/>
<path fill-rule="evenodd" clip-rule="evenodd" d="M-292.561 358.775C-292.561 352.19 -287.222 346.852 -280.637 346.852H-217.042C-210.457 346.852 -205.118 352.19 -205.118 358.775V422.364C-205.118 428.949 -210.457 434.287 -217.042 434.287H-280.637C-287.222 434.287 -292.561 428.949 -292.561 422.364V358.775ZM-280.637 347.574C-286.823 347.574 -291.838 352.589 -291.838 358.775V422.364C-291.838 428.55 -286.823 433.564 -280.637 433.564H-217.042C-210.856 433.564 -205.841 428.55 -205.841 422.364V358.775C-205.841 352.589 -210.856 347.574 -217.042 347.574H-280.637Z" fill="url(#paint58_radial_5237_110959)" shape-rendering="crispEdges"/>
<path fill-rule="evenodd" clip-rule="evenodd" d="M-205.841 358.775C-205.841 352.19 -200.502 346.852 -193.917 346.852H-130.322C-123.737 346.852 -118.398 352.19 -118.398 358.775V422.364C-118.398 428.949 -123.737 434.287 -130.322 434.287H-193.917C-200.502 434.287 -205.841 428.949 -205.841 422.364V358.775ZM-193.917 347.574C-200.103 347.574 -205.118 352.589 -205.118 358.775V422.364C-205.118 428.55 -200.103 433.564 -193.917 433.564H-130.322C-124.136 433.564 -119.121 428.55 -119.121 422.364V358.775C-119.121 352.589 -124.136 347.574 -130.322 347.574H-193.917Z" fill="url(#paint59_radial_5237_110959)" shape-rendering="crispEdges"/>
<path fill-rule="evenodd" clip-rule="evenodd" d="M-119.121 358.775C-119.121 352.19 -113.783 346.852 -107.197 346.852H-43.6027C-37.0173 346.852 -31.6788 352.19 -31.6788 358.775V422.364C-31.6788 428.949 -37.0173 434.287 -43.6027 434.287H-107.197C-113.783 434.287 -119.121 428.949 -119.121 422.364V358.775ZM-107.197 347.574C-113.383 347.574 -118.398 352.589 -118.398 358.775V422.364C-118.398 428.55 -113.383 433.564 -107.197 433.564H-43.6027C-37.4164 433.564 -32.4014 428.55 -32.4014 422.364V358.775C-32.4014 352.589 -37.4164 347.574 -43.6027 347.574H-107.197Z" fill="url(#paint60_radial_5237_110959)" shape-rendering="crispEdges"/>
<path fill-rule="evenodd" clip-rule="evenodd" d="M-32.4014 358.775C-32.4014 352.19 -27.0629 346.852 -20.4775 346.852H43.117C49.7024 346.852 55.041 352.19 55.041 358.775V422.364C55.041 428.949 49.7024 434.287 43.117 434.287H-20.4775C-27.0629 434.287 -32.4014 428.949 -32.4014 422.364V358.775ZM-20.4775 347.574C-26.6638 347.574 -31.6788 352.589 -31.6788 358.775V422.364C-31.6788 428.55 -26.6638 433.564 -20.4775 433.564H43.117C49.3033 433.564 54.3183 428.55 54.3183 422.364V358.775C54.3183 352.589 49.3033 347.574 43.117 347.574H-20.4775Z" fill="url(#paint61_radial_5237_110959)" shape-rendering="crispEdges"/>
<path fill-rule="evenodd" clip-rule="evenodd" d="M54.3183 358.775C54.3183 352.19 59.6568 346.852 66.2423 346.852H129.837C136.422 346.852 141.761 352.19 141.761 358.775V422.364C141.761 428.949 136.422 434.287 129.837 434.287H66.2423C59.6568 434.287 54.3183 428.949 54.3183 422.364V358.775ZM66.2423 347.574C60.056 347.574 55.041 352.589 55.041 358.775V422.364C55.041 428.55 60.0559 433.564 66.2423 433.564H129.837C136.023 433.564 141.038 428.55 141.038 422.364V358.775C141.038 352.589 136.023 347.574 129.837 347.574H66.2423Z" fill="url(#paint62_radial_5237_110959)" shape-rendering="crispEdges"/>
<path fill-rule="evenodd" clip-rule="evenodd" d="M141.038 358.775C141.038 352.19 146.377 346.852 152.962 346.852H216.556C223.142 346.852 228.48 352.19 228.48 358.775V422.364C228.48 428.949 223.142 434.287 216.556 434.287H152.962C146.377 434.287 141.038 428.949 141.038 422.364V358.775ZM152.962 347.574C146.776 347.574 141.761 352.589 141.761 358.775V422.364C141.761 428.55 146.776 433.564 152.962 433.564H216.556C222.743 433.564 227.758 428.55 227.758 422.364V358.775C227.758 352.589 222.743 347.574 216.556 347.574H152.962Z" fill="url(#paint63_radial_5237_110959)" shape-rendering="crispEdges"/>
<path fill-rule="evenodd" clip-rule="evenodd" d="M227.758 358.775C227.758 352.19 233.096 346.852 239.682 346.852H303.276C309.862 346.852 315.2 352.19 315.2 358.775V422.364C315.2 428.949 309.862 434.287 303.276 434.287H239.682C233.096 434.287 227.758 428.949 227.758 422.364V358.775ZM239.682 347.574C233.495 347.574 228.48 352.589 228.48 358.775V422.364C228.48 428.55 233.495 433.564 239.682 433.564H303.276C309.462 433.564 314.477 428.55 314.477 422.364V358.775C314.477 352.589 309.462 347.574 303.276 347.574H239.682Z" fill="url(#paint64_radial_5237_110959)" shape-rendering="crispEdges"/>
<path fill-rule="evenodd" clip-rule="evenodd" d="M314.477 358.775C314.477 352.19 319.816 346.852 326.401 346.852H389.996C396.581 346.852 401.92 352.19 401.92 358.775V422.364C401.92 428.949 396.581 434.287 389.996 434.287H326.401C319.816 434.287 314.477 428.949 314.477 422.364V358.775ZM326.401 347.574C320.215 347.574 315.2 352.589 315.2 358.775V422.364C315.2 428.55 320.215 433.564 326.401 433.564H389.996C396.182 433.564 401.197 428.55 401.197 422.364V358.775C401.197 352.589 396.182 347.574 389.996 347.574H326.401Z" fill="url(#paint65_radial_5237_110959)" shape-rendering="crispEdges"/>
<path fill-rule="evenodd" clip-rule="evenodd" d="M401.197 358.775C401.197 352.19 406.536 346.852 413.121 346.852H476.716C483.301 346.852 488.64 352.19 488.64 358.775V422.364C488.64 428.949 483.301 434.287 476.716 434.287H413.121C406.536 434.287 401.197 428.949 401.197 422.364V358.775ZM413.121 347.574C406.935 347.574 401.92 352.589 401.92 358.775V422.364C401.92 428.55 406.935 433.564 413.121 433.564H476.716C482.902 433.564 487.917 428.55 487.917 422.364V358.775C487.917 352.589 482.902 347.574 476.716 347.574H413.121Z" fill="url(#paint66_radial_5237_110959)" shape-rendering="crispEdges"/>
<path fill-rule="evenodd" clip-rule="evenodd" d="M487.917 358.775C487.917 352.19 493.255 346.852 499.841 346.852H563.435C570.021 346.852 575.359 352.19 575.359 358.775V422.364C575.359 428.949 570.021 434.287 563.435 434.287H499.841C493.255 434.287 487.917 428.949 487.917 422.364V358.775ZM499.841 347.574C493.655 347.574 488.64 352.589 488.64 358.775V422.364C488.64 428.55 493.655 433.564 499.841 433.564H563.435C569.622 433.564 574.637 428.55 574.637 422.364V358.775C574.637 352.589 569.622 347.574 563.435 347.574H499.841Z" fill="url(#paint67_radial_5237_110959)" shape-rendering="crispEdges"/>
<path fill-rule="evenodd" clip-rule="evenodd" d="M574.637 358.775C574.637 352.19 579.975 346.852 586.561 346.852H650.155C656.74 346.852 662.079 352.19 662.079 358.775V422.364C662.079 428.949 656.74 434.287 650.155 434.287H586.561C579.975 434.287 574.637 428.949 574.637 422.364V358.775ZM586.561 347.574C580.374 347.574 575.359 352.589 575.359 358.775V422.364C575.359 428.55 580.374 433.564 586.561 433.564H650.155C656.341 433.564 661.356 428.55 661.356 422.364V358.775C661.356 352.589 656.341 347.574 650.155 347.574H586.561Z" fill="url(#paint68_radial_5237_110959)" shape-rendering="crispEdges"/>
<path fill-rule="evenodd" clip-rule="evenodd" d="M661.356 358.775C661.356 352.19 666.695 346.852 673.28 346.852H736.875C743.46 346.852 748.799 352.19 748.799 358.775V422.364C748.799 428.949 743.46 434.287 736.875 434.287H673.28C666.695 434.287 661.356 428.949 661.356 422.364V358.775ZM673.28 347.574C667.094 347.574 662.079 352.589 662.079 358.775V422.364C662.079 428.55 667.094 433.564 673.28 433.564H736.875C743.061 433.564 748.076 428.55 748.076 422.364V358.775C748.076 352.589 743.061 347.574 736.875 347.574H673.28Z" fill="url(#paint69_radial_5237_110959)" shape-rendering="crispEdges"/>
<path fill-rule="evenodd" clip-rule="evenodd" d="M-466 445.488C-466 438.903 -460.661 433.564 -454.076 433.564H-390.482C-383.896 433.564 -378.558 438.903 -378.558 445.488V509.077C-378.558 515.662 -383.896 521 -390.482 521H-454.076C-460.661 521 -466 515.662 -466 509.077V445.488ZM-454.076 434.287C-460.262 434.287 -465.277 439.302 -465.277 445.488V509.077C-465.277 515.263 -460.262 520.277 -454.076 520.277H-390.482C-384.295 520.277 -379.28 515.263 -379.28 509.077V445.488C-379.28 439.302 -384.295 434.287 -390.482 434.287H-454.076Z" fill="url(#paint70_radial_5237_110959)" shape-rendering="crispEdges"/>
<path fill-rule="evenodd" clip-rule="evenodd" d="M-379.28 445.488C-379.28 438.903 -373.942 433.564 -367.356 433.564H-303.762C-297.176 433.564 -291.838 438.903 -291.838 445.488V509.077C-291.838 515.662 -297.176 521 -303.762 521H-367.356C-373.942 521 -379.28 515.662 -379.28 509.077V445.488ZM-367.356 434.287C-373.543 434.287 -378.558 439.302 -378.558 445.488V509.077C-378.558 515.263 -373.543 520.277 -367.356 520.277H-303.762C-297.576 520.277 -292.561 515.263 -292.561 509.077V445.488C-292.561 439.302 -297.576 434.287 -303.762 434.287H-367.356Z" fill="url(#paint71_radial_5237_110959)" shape-rendering="crispEdges"/>
<path fill-rule="evenodd" clip-rule="evenodd" d="M-292.561 445.488C-292.561 438.903 -287.222 433.564 -280.637 433.564H-217.042C-210.457 433.564 -205.118 438.903 -205.118 445.488V509.077C-205.118 515.662 -210.457 521 -217.042 521H-280.637C-287.222 521 -292.561 515.662 -292.561 509.077V445.488ZM-280.637 434.287C-286.823 434.287 -291.838 439.302 -291.838 445.488V509.077C-291.838 515.263 -286.823 520.277 -280.637 520.277H-217.042C-210.856 520.277 -205.841 515.263 -205.841 509.077V445.488C-205.841 439.302 -210.856 434.287 -217.042 434.287H-280.637Z" fill="url(#paint72_radial_5237_110959)" shape-rendering="crispEdges"/>
<path fill-rule="evenodd" clip-rule="evenodd" d="M-205.841 445.488C-205.841 438.903 -200.502 433.564 -193.917 433.564H-130.322C-123.737 433.564 -118.398 438.903 -118.398 445.488V509.077C-118.398 515.662 -123.737 521 -130.322 521H-193.917C-200.502 521 -205.841 515.662 -205.841 509.077V445.488ZM-193.917 434.287C-200.103 434.287 -205.118 439.302 -205.118 445.488V509.077C-205.118 515.263 -200.103 520.277 -193.917 520.277H-130.322C-124.136 520.277 -119.121 515.263 -119.121 509.077V445.488C-119.121 439.302 -124.136 434.287 -130.322 434.287H-193.917Z" fill="url(#paint73_radial_5237_110959)" shape-rendering="crispEdges"/>
<path fill-rule="evenodd" clip-rule="evenodd" d="M-119.121 445.488C-119.121 438.903 -113.783 433.564 -107.197 433.564H-43.6027C-37.0173 433.564 -31.6788 438.903 -31.6788 445.488V509.077C-31.6788 515.662 -37.0173 521 -43.6027 521H-107.197C-113.783 521 -119.121 515.662 -119.121 509.077V445.488ZM-107.197 434.287C-113.383 434.287 -118.398 439.302 -118.398 445.488V509.077C-118.398 515.263 -113.383 520.277 -107.197 520.277H-43.6027C-37.4164 520.277 -32.4014 515.263 -32.4014 509.077V445.488C-32.4014 439.302 -37.4164 434.287 -43.6027 434.287H-107.197Z" fill="url(#paint74_radial_5237_110959)" shape-rendering="crispEdges"/>
<path fill-rule="evenodd" clip-rule="evenodd" d="M-32.4014 445.488C-32.4014 438.903 -27.0629 433.564 -20.4775 433.564H43.117C49.7024 433.564 55.041 438.903 55.041 445.488V509.077C55.041 515.662 49.7024 521 43.117 521H-20.4775C-27.0629 521 -32.4014 515.662 -32.4014 509.077V445.488ZM-20.4775 434.287C-26.6638 434.287 -31.6788 439.302 -31.6788 445.488V509.077C-31.6788 515.263 -26.6638 520.277 -20.4775 520.277H43.117C49.3033 520.277 54.3183 515.263 54.3183 509.077V445.488C54.3183 439.302 49.3033 434.287 43.117 434.287H-20.4775Z" fill="url(#paint75_radial_5237_110959)" shape-rendering="crispEdges"/>
<path fill-rule="evenodd" clip-rule="evenodd" d="M54.3183 445.488C54.3183 438.903 59.6568 433.564 66.2423 433.564H129.837C136.422 433.564 141.761 438.903 141.761 445.488V509.077C141.761 515.662 136.422 521 129.837 521H66.2423C59.6568 521 54.3183 515.662 54.3183 509.077V445.488ZM66.2423 434.287C60.056 434.287 55.041 439.302 55.041 445.488V509.077C55.041 515.263 60.0559 520.277 66.2423 520.277H129.837C136.023 520.277 141.038 515.263 141.038 509.077V445.488C141.038 439.302 136.023 434.287 129.837 434.287H66.2423Z" fill="url(#paint76_radial_5237_110959)" shape-rendering="crispEdges"/>
<path fill-rule="evenodd" clip-rule="evenodd" d="M141.038 445.488C141.038 438.903 146.377 433.564 152.962 433.564H216.556C223.142 433.564 228.48 438.903 228.48 445.488V509.077C228.48 515.662 223.142 521 216.556 521H152.962C146.377 521 141.038 515.662 141.038 509.077V445.488ZM152.962 434.287C146.776 434.287 141.761 439.302 141.761 445.488V509.077C141.761 515.263 146.776 520.277 152.962 520.277H216.556C222.743 520.277 227.758 515.263 227.758 509.077V445.488C227.758 439.302 222.743 434.287 216.556 434.287H152.962Z" fill="url(#paint77_radial_5237_110959)" shape-rendering="crispEdges"/>
<path fill-rule="evenodd" clip-rule="evenodd" d="M227.758 445.488C227.758 438.903 233.096 433.564 239.682 433.564H303.276C309.862 433.564 315.2 438.903 315.2 445.488V509.077C315.2 515.662 309.862 521 303.276 521H239.682C233.096 521 227.758 515.662 227.758 509.077V445.488ZM239.682 434.287C233.495 434.287 228.48 439.302 228.48 445.488V509.077C228.48 515.263 233.495 520.277 239.682 520.277H303.276C309.462 520.277 314.477 515.263 314.477 509.077V445.488C314.477 439.302 309.462 434.287 303.276 434.287H239.682Z" fill="url(#paint78_radial_5237_110959)" shape-rendering="crispEdges"/>
<path fill-rule="evenodd" clip-rule="evenodd" d="M314.477 445.488C314.477 438.903 319.816 433.564 326.401 433.564H389.996C396.581 433.564 401.92 438.903 401.92 445.488V509.077C401.92 515.662 396.581 521 389.996 521H326.401C319.816 521 314.477 515.662 314.477 509.077V445.488ZM326.401 434.287C320.215 434.287 315.2 439.302 315.2 445.488V509.077C315.2 515.263 320.215 520.277 326.401 520.277H389.996C396.182 520.277 401.197 515.263 401.197 509.077V445.488C401.197 439.302 396.182 434.287 389.996 434.287H326.401Z" fill="url(#paint79_radial_5237_110959)" shape-rendering="crispEdges"/>
<path fill-rule="evenodd" clip-rule="evenodd" d="M401.197 445.488C401.197 438.903 406.536 433.564 413.121 433.564H476.716C483.301 433.564 488.64 438.903 488.64 445.488V509.077C488.64 515.662 483.301 521 476.716 521H413.121C406.536 521 401.197 515.662 401.197 509.077V445.488ZM413.121 434.287C406.935 434.287 401.92 439.302 401.92 445.488V509.077C401.92 515.263 406.935 520.277 413.121 520.277H476.716C482.902 520.277 487.917 515.263 487.917 509.077V445.488C487.917 439.302 482.902 434.287 476.716 434.287H413.121Z" fill="url(#paint80_radial_5237_110959)" shape-rendering="crispEdges"/>
<path fill-rule="evenodd" clip-rule="evenodd" d="M487.917 445.488C487.917 438.903 493.255 433.564 499.841 433.564H563.435C570.021 433.564 575.359 438.903 575.359 445.488V509.077C575.359 515.662 570.021 521 563.435 521H499.841C493.255 521 487.917 515.662 487.917 509.077V445.488ZM499.841 434.287C493.655 434.287 488.64 439.302 488.64 445.488V509.077C488.64 515.263 493.655 520.277 499.841 520.277H563.435C569.622 520.277 574.637 515.263 574.637 509.077V445.488C574.637 439.302 569.622 434.287 563.435 434.287H499.841Z" fill="url(#paint81_radial_5237_110959)" shape-rendering="crispEdges"/>
<path fill-rule="evenodd" clip-rule="evenodd" d="M574.637 445.488C574.637 438.903 579.975 433.564 586.561 433.564H650.155C656.74 433.564 662.079 438.903 662.079 445.488V509.077C662.079 515.662 656.74 521 650.155 521H586.561C579.975 521 574.637 515.662 574.637 509.077V445.488ZM586.561 434.287C580.374 434.287 575.359 439.302 575.359 445.488V509.077C575.359 515.263 580.374 520.277 586.561 520.277H650.155C656.341 520.277 661.356 515.263 661.356 509.077V445.488C661.356 439.302 656.341 434.287 650.155 434.287H586.561Z" fill="url(#paint82_radial_5237_110959)" shape-rendering="crispEdges"/>
<path fill-rule="evenodd" clip-rule="evenodd" d="M661.356 445.488C661.356 438.903 666.695 433.564 673.28 433.564H736.875C743.46 433.564 748.799 438.903 748.799 445.488V509.077C748.799 515.662 743.46 521 736.875 521H673.28C666.695 521 661.356 515.662 661.356 509.077V445.488ZM673.28 434.287C667.094 434.287 662.079 439.302 662.079 445.488V509.077C662.079 515.263 667.094 520.277 673.28 520.277H736.875C743.061 520.277 748.076 515.263 748.076 509.077V445.488C748.076 439.302 743.061 434.287 736.875 434.287H673.28Z" fill="url(#paint83_radial_5237_110959)" shape-rendering="crispEdges"/>
</g>
</g>
<defs>
<filter id="filter0_d_5237_110959" x="-499" y="-33" width="1292" height="587" filterUnits="userSpaceOnUse" color-interpolation-filters="sRGB">
<feFlood flood-opacity="0" result="BackgroundImageFix"/>
<feColorMatrix in="SourceAlpha" type="matrix" values="0 0 0 0 0 0 0 0 0 0 0 0 0 0 0 0 0 0 127 0" result="hardAlpha"/>
<feOffset/>
<feGaussianBlur stdDeviation="16.5"/>
<feComposite in2="hardAlpha" operator="out"/>
<feColorMatrix type="matrix" values="0 0 0 0 0.658333 0 0 0 0 0.658333 0 0 0 0 0.658333 0 0 0 0.25 0"/>
<feBlend mode="normal" in2="BackgroundImageFix" result="effect1_dropShadow_5237_110959"/>
<feBlend mode="normal" in="SourceGraphic" in2="effect1_dropShadow_5237_110959" result="shape"/>
</filter>
<radialGradient id="paint0_radial_5237_110959" cx="0" cy="0" r="1" gradientUnits="userSpaceOnUse" gradientTransform="translate(378 246.5) rotate(17.5897) scale(246.526 246.526)">
<stop stop-color="#656565"/>
<stop offset="1" stop-color="#464646" stop-opacity="0"/>
</radialGradient>
<radialGradient id="paint1_radial_5237_110959" cx="0" cy="0" r="1" gradientUnits="userSpaceOnUse" gradientTransform="translate(378 246.5) rotate(17.5897) scale(246.526 246.526)">
<stop stop-color="#656565"/>
<stop offset="1" stop-color="#464646" stop-opacity="0"/>
</radialGradient>
<radialGradient id="paint2_radial_5237_110959" cx="0" cy="0" r="1" gradientUnits="userSpaceOnUse" gradientTransform="translate(378 246.5) rotate(17.5897) scale(246.526 246.526)">
<stop stop-color="#656565"/>
<stop offset="1" stop-color="#464646" stop-opacity="0"/>
</radialGradient>
<radialGradient id="paint3_radial_5237_110959" cx="0" cy="0" r="1" gradientUnits="userSpaceOnUse" gradientTransform="translate(378 246.5) rotate(17.5897) scale(246.526 246.526)">
<stop stop-color="#656565"/>
<stop offset="1" stop-color="#464646" stop-opacity="0"/>
</radialGradient>
<radialGradient id="paint4_radial_5237_110959" cx="0" cy="0" r="1" gradientUnits="userSpaceOnUse" gradientTransform="translate(378 246.5) rotate(17.5897) scale(246.526 246.526)">
<stop stop-color="#656565"/>
<stop offset="1" stop-color="#464646" stop-opacity="0"/>
</radialGradient>
<radialGradient id="paint5_radial_5237_110959" cx="0" cy="0" r="1" gradientUnits="userSpaceOnUse" gradientTransform="translate(378 246.5) rotate(17.5897) scale(246.526 246.526)">
<stop stop-color="#656565"/>
<stop offset="1" stop-color="#464646" stop-opacity="0"/>
</radialGradient>
<radialGradient id="paint6_radial_5237_110959" cx="0" cy="0" r="1" gradientUnits="userSpaceOnUse" gradientTransform="translate(378 246.5) rotate(17.5897) scale(246.526 246.526)">
<stop stop-color="#656565"/>
<stop offset="1" stop-color="#464646" stop-opacity="0"/>
</radialGradient>
<radialGradient id="paint7_radial_5237_110959" cx="0" cy="0" r="1" gradientUnits="userSpaceOnUse" gradientTransform="translate(378 246.5) rotate(17.5897) scale(246.526 246.526)">
<stop stop-color="#656565"/>
<stop offset="1" stop-color="#464646" stop-opacity="0"/>
</radialGradient>
<radialGradient id="paint8_radial_5237_110959" cx="0" cy="0" r="1" gradientUnits="userSpaceOnUse" gradientTransform="translate(378 246.5) rotate(17.5897) scale(246.526 246.526)">
<stop stop-color="#656565"/>
<stop offset="1" stop-color="#464646" stop-opacity="0"/>
</radialGradient>
<radialGradient id="paint9_radial_5237_110959" cx="0" cy="0" r="1" gradientUnits="userSpaceOnUse" gradientTransform="translate(378 246.5) rotate(17.5897) scale(246.526 246.526)">
<stop stop-color="#656565"/>
<stop offset="1" stop-color="#464646" stop-opacity="0"/>
</radialGradient>
<radialGradient id="paint10_radial_5237_110959" cx="0" cy="0" r="1" gradientUnits="userSpaceOnUse" gradientTransform="translate(378 246.5) rotate(17.5897) scale(246.526 246.526)">
<stop stop-color="#656565"/>
<stop offset="1" stop-color="#464646" stop-opacity="0"/>
</radialGradient>
<radialGradient id="paint11_radial_5237_110959" cx="0" cy="0" r="1" gradientUnits="userSpaceOnUse" gradientTransform="translate(378 246.5) rotate(17.5897) scale(246.526 246.526)">
<stop stop-color="#656565"/>
<stop offset="1" stop-color="#464646" stop-opacity="0"/>
</radialGradient>
<radialGradient id="paint12_radial_5237_110959" cx="0" cy="0" r="1" gradientUnits="userSpaceOnUse" gradientTransform="translate(378 246.5) rotate(17.5897) scale(246.526 246.526)">
<stop stop-color="#656565"/>
<stop offset="1" stop-color="#464646" stop-opacity="0"/>
</radialGradient>
<radialGradient id="paint13_radial_5237_110959" cx="0" cy="0" r="1" gradientUnits="userSpaceOnUse" gradientTransform="translate(378 246.5) rotate(17.5897) scale(246.526 246.526)">
<stop stop-color="#656565"/>
<stop offset="1" stop-color="#464646" stop-opacity="0"/>
</radialGradient>
<radialGradient id="paint14_radial_5237_110959" cx="0" cy="0" r="1" gradientUnits="userSpaceOnUse" gradientTransform="translate(378 246.5) rotate(17.5897) scale(246.526 246.526)">
<stop stop-color="#656565"/>
<stop offset="1" stop-color="#464646" stop-opacity="0"/>
</radialGradient>
<radialGradient id="paint15_radial_5237_110959" cx="0" cy="0" r="1" gradientUnits="userSpaceOnUse" gradientTransform="translate(378 246.5) rotate(17.5897) scale(246.526 246.526)">
<stop stop-color="#656565"/>
<stop offset="1" stop-color="#464646" stop-opacity="0"/>
</radialGradient>
<radialGradient id="paint16_radial_5237_110959" cx="0" cy="0" r="1" gradientUnits="userSpaceOnUse" gradientTransform="translate(378 246.5) rotate(17.5897) scale(246.526 246.526)">
<stop stop-color="#656565"/>
<stop offset="1" stop-color="#464646" stop-opacity="0"/>
</radialGradient>
<radialGradient id="paint17_radial_5237_110959" cx="0" cy="0" r="1" gradientUnits="userSpaceOnUse" gradientTransform="translate(378 246.5) rotate(17.5897) scale(246.526 246.526)">
<stop stop-color="#656565"/>
<stop offset="1" stop-color="#464646" stop-opacity="0"/>
</radialGradient>
<radialGradient id="paint18_radial_5237_110959" cx="0" cy="0" r="1" gradientUnits="userSpaceOnUse" gradientTransform="translate(378 246.5) rotate(17.5897) scale(246.526 246.526)">
<stop stop-color="#656565"/>
<stop offset="1" stop-color="#464646" stop-opacity="0"/>
</radialGradient>
<radialGradient id="paint19_radial_5237_110959" cx="0" cy="0" r="1" gradientUnits="userSpaceOnUse" gradientTransform="translate(378 246.5) rotate(17.5897) scale(246.526 246.526)">
<stop stop-color="#656565"/>
<stop offset="1" stop-color="#464646" stop-opacity="0"/>
</radialGradient>
<radialGradient id="paint20_radial_5237_110959" cx="0" cy="0" r="1" gradientUnits="userSpaceOnUse" gradientTransform="translate(378 246.5) rotate(17.5897) scale(246.526 246.526)">
<stop stop-color="#656565"/>
<stop offset="1" stop-color="#464646" stop-opacity="0"/>
</radialGradient>
<radialGradient id="paint21_radial_5237_110959" cx="0" cy="0" r="1" gradientUnits="userSpaceOnUse" gradientTransform="translate(378 246.5) rotate(17.5897) scale(246.526 246.526)">
<stop stop-color="#656565"/>
<stop offset="1" stop-color="#464646" stop-opacity="0"/>
</radialGradient>
<radialGradient id="paint22_radial_5237_110959" cx="0" cy="0" r="1" gradientUnits="userSpaceOnUse" gradientTransform="translate(378 246.5) rotate(17.5897) scale(246.526 246.526)">
<stop stop-color="#656565"/>
<stop offset="1" stop-color="#464646" stop-opacity="0"/>
</radialGradient>
<radialGradient id="paint23_radial_5237_110959" cx="0" cy="0" r="1" gradientUnits="userSpaceOnUse" gradientTransform="translate(378 246.5) rotate(17.5897) scale(246.526 246.526)">
<stop stop-color="#656565"/>
<stop offset="1" stop-color="#464646" stop-opacity="0"/>
</radialGradient>
<radialGradient id="paint24_radial_5237_110959" cx="0" cy="0" r="1" gradientUnits="userSpaceOnUse" gradientTransform="translate(378 246.5) rotate(17.5897) scale(246.526 246.526)">
<stop stop-color="#656565"/>
<stop offset="1" stop-color="#464646" stop-opacity="0"/>
</radialGradient>
<radialGradient id="paint25_radial_5237_110959" cx="0" cy="0" r="1" gradientUnits="userSpaceOnUse" gradientTransform="translate(378 246.5) rotate(17.5897) scale(246.526 246.526)">
<stop stop-color="#656565"/>
<stop offset="1" stop-color="#464646" stop-opacity="0"/>
</radialGradient>
<radialGradient id="paint26_radial_5237_110959" cx="0" cy="0" r="1" gradientUnits="userSpaceOnUse" gradientTransform="translate(378 246.5) rotate(17.5897) scale(246.526 246.526)">
<stop stop-color="#656565"/>
<stop offset="1" stop-color="#464646" stop-opacity="0"/>
</radialGradient>
<radialGradient id="paint27_radial_5237_110959" cx="0" cy="0" r="1" gradientUnits="userSpaceOnUse" gradientTransform="translate(378 246.5) rotate(17.5897) scale(246.526 246.526)">
<stop stop-color="#656565"/>
<stop offset="1" stop-color="#464646" stop-opacity="0"/>
</radialGradient>
<radialGradient id="paint28_radial_5237_110959" cx="0" cy="0" r="1" gradientUnits="userSpaceOnUse" gradientTransform="translate(378 246.5) rotate(17.5897) scale(246.526 246.526)">
<stop stop-color="#656565"/>
<stop offset="1" stop-color="#464646" stop-opacity="0"/>
</radialGradient>
<radialGradient id="paint29_radial_5237_110959" cx="0" cy="0" r="1" gradientUnits="userSpaceOnUse" gradientTransform="translate(378 246.5) rotate(17.5897) scale(246.526 246.526)">
<stop stop-color="#656565"/>
<stop offset="1" stop-color="#464646" stop-opacity="0"/>
</radialGradient>
<radialGradient id="paint30_radial_5237_110959" cx="0" cy="0" r="1" gradientUnits="userSpaceOnUse" gradientTransform="translate(378 246.5) rotate(17.5897) scale(246.526 246.526)">
<stop stop-color="#656565"/>
<stop offset="1" stop-color="#464646" stop-opacity="0"/>
</radialGradient>
<radialGradient id="paint31_radial_5237_110959" cx="0" cy="0" r="1" gradientUnits="userSpaceOnUse" gradientTransform="translate(378 246.5) rotate(17.5897) scale(246.526 246.526)">
<stop stop-color="#656565"/>
<stop offset="1" stop-color="#464646" stop-opacity="0"/>
</radialGradient>
<radialGradient id="paint32_radial_5237_110959" cx="0" cy="0" r="1" gradientUnits="userSpaceOnUse" gradientTransform="translate(378 246.5) rotate(17.5897) scale(246.526 246.526)">
<stop stop-color="#656565"/>
<stop offset="1" stop-color="#464646" stop-opacity="0"/>
</radialGradient>
<radialGradient id="paint33_radial_5237_110959" cx="0" cy="0" r="1" gradientUnits="userSpaceOnUse" gradientTransform="translate(378 246.5) rotate(17.5897) scale(246.526 246.526)">
<stop stop-color="#656565"/>
<stop offset="1" stop-color="#464646" stop-opacity="0"/>
</radialGradient>
<radialGradient id="paint34_radial_5237_110959" cx="0" cy="0" r="1" gradientUnits="userSpaceOnUse" gradientTransform="translate(378 246.5) rotate(17.5897) scale(246.526 246.526)">
<stop stop-color="#656565"/>
<stop offset="1" stop-color="#464646" stop-opacity="0"/>
</radialGradient>
<radialGradient id="paint35_radial_5237_110959" cx="0" cy="0" r="1" gradientUnits="userSpaceOnUse" gradientTransform="translate(378 246.5) rotate(17.5897) scale(246.526 246.526)">
<stop stop-color="#656565"/>
<stop offset="1" stop-color="#464646" stop-opacity="0"/>
</radialGradient>
<radialGradient id="paint36_radial_5237_110959" cx="0" cy="0" r="1" gradientUnits="userSpaceOnUse" gradientTransform="translate(378 246.5) rotate(17.5897) scale(246.526 246.526)">
<stop stop-color="#656565"/>
<stop offset="1" stop-color="#464646" stop-opacity="0"/>
</radialGradient>
<radialGradient id="paint37_radial_5237_110959" cx="0" cy="0" r="1" gradientUnits="userSpaceOnUse" gradientTransform="translate(378 246.5) rotate(17.5897) scale(246.526 246.526)">
<stop stop-color="#656565"/>
<stop offset="1" stop-color="#464646" stop-opacity="0"/>
</radialGradient>
<radialGradient id="paint38_radial_5237_110959" cx="0" cy="0" r="1" gradientUnits="userSpaceOnUse" gradientTransform="translate(378 246.5) rotate(17.5897) scale(246.526 246.526)">
<stop stop-color="#656565"/>
<stop offset="1" stop-color="#464646" stop-opacity="0"/>
</radialGradient>
<radialGradient id="paint39_radial_5237_110959" cx="0" cy="0" r="1" gradientUnits="userSpaceOnUse" gradientTransform="translate(378 246.5) rotate(17.5897) scale(246.526 246.526)">
<stop stop-color="#656565"/>
<stop offset="1" stop-color="#464646" stop-opacity="0"/>
</radialGradient>
<radialGradient id="paint40_radial_5237_110959" cx="0" cy="0" r="1" gradientUnits="userSpaceOnUse" gradientTransform="translate(378 246.5) rotate(17.5897) scale(246.526 246.526)">
<stop stop-color="#656565"/>
<stop offset="1" stop-color="#464646" stop-opacity="0"/>
</radialGradient>
<radialGradient id="paint41_radial_5237_110959" cx="0" cy="0" r="1" gradientUnits="userSpaceOnUse" gradientTransform="translate(378 246.5) rotate(17.5897) scale(246.526 246.526)">
<stop stop-color="#656565"/>
<stop offset="1" stop-color="#464646" stop-opacity="0"/>
</radialGradient>
<radialGradient id="paint42_radial_5237_110959" cx="0" cy="0" r="1" gradientUnits="userSpaceOnUse" gradientTransform="translate(378 246.5) rotate(17.5897) scale(246.526 246.526)">
<stop stop-color="#656565"/>
<stop offset="1" stop-color="#464646" stop-opacity="0"/>
</radialGradient>
<radialGradient id="paint43_radial_5237_110959" cx="0" cy="0" r="1" gradientUnits="userSpaceOnUse" gradientTransform="translate(378 246.5) rotate(17.5897) scale(246.526 246.526)">
<stop stop-color="#656565"/>
<stop offset="1" stop-color="#464646" stop-opacity="0"/>
</radialGradient>
<radialGradient id="paint44_radial_5237_110959" cx="0" cy="0" r="1" gradientUnits="userSpaceOnUse" gradientTransform="translate(378 246.5) rotate(17.5897) scale(246.526 246.526)">
<stop stop-color="#656565"/>
<stop offset="1" stop-color="#464646" stop-opacity="0"/>
</radialGradient>
<radialGradient id="paint45_radial_5237_110959" cx="0" cy="0" r="1" gradientUnits="userSpaceOnUse" gradientTransform="translate(378 246.5) rotate(17.5897) scale(246.526 246.526)">
<stop stop-color="#656565"/>
<stop offset="1" stop-color="#464646" stop-opacity="0"/>
</radialGradient>
<radialGradient id="paint46_radial_5237_110959" cx="0" cy="0" r="1" gradientUnits="userSpaceOnUse" gradientTransform="translate(378 246.5) rotate(17.5897) scale(246.526 246.526)">
<stop stop-color="#656565"/>
<stop offset="1" stop-color="#464646" stop-opacity="0"/>
</radialGradient>
<radialGradient id="paint47_radial_5237_110959" cx="0" cy="0" r="1" gradientUnits="userSpaceOnUse" gradientTransform="translate(378 246.5) rotate(17.5897) scale(246.526 246.526)">
<stop stop-color="#656565"/>
<stop offset="1" stop-color="#464646" stop-opacity="0"/>
</radialGradient>
<radialGradient id="paint48_radial_5237_110959" cx="0" cy="0" r="1" gradientUnits="userSpaceOnUse" gradientTransform="translate(378 246.5) rotate(17.5897) scale(246.526 246.526)">
<stop stop-color="#656565"/>
<stop offset="1" stop-color="#464646" stop-opacity="0"/>
</radialGradient>
<radialGradient id="paint49_radial_5237_110959" cx="0" cy="0" r="1" gradientUnits="userSpaceOnUse" gradientTransform="translate(378 246.5) rotate(17.5897) scale(246.526 246.526)">
<stop stop-color="#656565"/>
<stop offset="1" stop-color="#464646" stop-opacity="0"/>
</radialGradient>
<radialGradient id="paint50_radial_5237_110959" cx="0" cy="0" r="1" gradientUnits="userSpaceOnUse" gradientTransform="translate(378 246.5) rotate(17.5897) scale(246.526 246.526)">
<stop stop-color="#656565"/>
<stop offset="1" stop-color="#464646" stop-opacity="0"/>
</radialGradient>
<radialGradient id="paint51_radial_5237_110959" cx="0" cy="0" r="1" gradientUnits="userSpaceOnUse" gradientTransform="translate(378 246.5) rotate(17.5897) scale(246.526 246.526)">
<stop stop-color="#656565"/>
<stop offset="1" stop-color="#464646" stop-opacity="0"/>
</radialGradient>
<radialGradient id="paint52_radial_5237_110959" cx="0" cy="0" r="1" gradientUnits="userSpaceOnUse" gradientTransform="translate(378 246.5) rotate(17.5897) scale(246.526 246.526)">
<stop stop-color="#656565"/>
<stop offset="1" stop-color="#464646" stop-opacity="0"/>
</radialGradient>
<radialGradient id="paint53_radial_5237_110959" cx="0" cy="0" r="1" gradientUnits="userSpaceOnUse" gradientTransform="translate(378 246.5) rotate(17.5897) scale(246.526 246.526)">
<stop stop-color="#656565"/>
<stop offset="1" stop-color="#464646" stop-opacity="0"/>
</radialGradient>
<radialGradient id="paint54_radial_5237_110959" cx="0" cy="0" r="1" gradientUnits="userSpaceOnUse" gradientTransform="translate(378 246.5) rotate(17.5897) scale(246.526 246.526)">
<stop stop-color="#656565"/>
<stop offset="1" stop-color="#464646" stop-opacity="0"/>
</radialGradient>
<radialGradient id="paint55_radial_5237_110959" cx="0" cy="0" r="1" gradientUnits="userSpaceOnUse" gradientTransform="translate(378 246.5) rotate(17.5897) scale(246.526 246.526)">
<stop stop-color="#656565"/>
<stop offset="1" stop-color="#464646" stop-opacity="0"/>
</radialGradient>
<radialGradient id="paint56_radial_5237_110959" cx="0" cy="0" r="1" gradientUnits="userSpaceOnUse" gradientTransform="translate(378 246.5) rotate(17.5897) scale(246.526 246.526)">
<stop stop-color="#656565"/>
<stop offset="1" stop-color="#464646" stop-opacity="0"/>
</radialGradient>
<radialGradient id="paint57_radial_5237_110959" cx="0" cy="0" r="1" gradientUnits="userSpaceOnUse" gradientTransform="translate(378 246.5) rotate(17.5897) scale(246.526 246.526)">
<stop stop-color="#656565"/>
<stop offset="1" stop-color="#464646" stop-opacity="0"/>
</radialGradient>
<radialGradient id="paint58_radial_5237_110959" cx="0" cy="0" r="1" gradientUnits="userSpaceOnUse" gradientTransform="translate(378 246.5) rotate(17.5897) scale(246.526 246.526)">
<stop stop-color="#656565"/>
<stop offset="1" stop-color="#464646" stop-opacity="0"/>
</radialGradient>
<radialGradient id="paint59_radial_5237_110959" cx="0" cy="0" r="1" gradientUnits="userSpaceOnUse" gradientTransform="translate(378 246.5) rotate(17.5897) scale(246.526 246.526)">
<stop stop-color="#656565"/>
<stop offset="1" stop-color="#464646" stop-opacity="0"/>
</radialGradient>
<radialGradient id="paint60_radial_5237_110959" cx="0" cy="0" r="1" gradientUnits="userSpaceOnUse" gradientTransform="translate(378 246.5) rotate(17.5897) scale(246.526 246.526)">
<stop stop-color="#656565"/>
<stop offset="1" stop-color="#464646" stop-opacity="0"/>
</radialGradient>
<radialGradient id="paint61_radial_5237_110959" cx="0" cy="0" r="1" gradientUnits="userSpaceOnUse" gradientTransform="translate(378 246.5) rotate(17.5897) scale(246.526 246.526)">
<stop stop-color="#656565"/>
<stop offset="1" stop-color="#464646" stop-opacity="0"/>
</radialGradient>
<radialGradient id="paint62_radial_5237_110959" cx="0" cy="0" r="1" gradientUnits="userSpaceOnUse" gradientTransform="translate(378 246.5) rotate(17.5897) scale(246.526 246.526)">
<stop stop-color="#656565"/>
<stop offset="1" stop-color="#464646" stop-opacity="0"/>
</radialGradient>
<radialGradient id="paint63_radial_5237_110959" cx="0" cy="0" r="1" gradientUnits="userSpaceOnUse" gradientTransform="translate(378 246.5) rotate(17.5897) scale(246.526 246.526)">
<stop stop-color="#656565"/>
<stop offset="1" stop-color="#464646" stop-opacity="0"/>
</radialGradient>
<radialGradient id="paint64_radial_5237_110959" cx="0" cy="0" r="1" gradientUnits="userSpaceOnUse" gradientTransform="translate(378 246.5) rotate(17.5897) scale(246.526 246.526)">
<stop stop-color="#656565"/>
<stop offset="1" stop-color="#464646" stop-opacity="0"/>
</radialGradient>
<radialGradient id="paint65_radial_5237_110959" cx="0" cy="0" r="1" gradientUnits="userSpaceOnUse" gradientTransform="translate(378 246.5) rotate(17.5897) scale(246.526 246.526)">
<stop stop-color="#656565"/>
<stop offset="1" stop-color="#464646" stop-opacity="0"/>
</radialGradient>
<radialGradient id="paint66_radial_5237_110959" cx="0" cy="0" r="1" gradientUnits="userSpaceOnUse" gradientTransform="translate(378 246.5) rotate(17.5897) scale(246.526 246.526)">
<stop stop-color="#656565"/>
<stop offset="1" stop-color="#464646" stop-opacity="0"/>
</radialGradient>
<radialGradient id="paint67_radial_5237_110959" cx="0" cy="0" r="1" gradientUnits="userSpaceOnUse" gradientTransform="translate(378 246.5) rotate(17.5897) scale(246.526 246.526)">
<stop stop-color="#656565"/>
<stop offset="1" stop-color="#464646" stop-opacity="0"/>
</radialGradient>
<radialGradient id="paint68_radial_5237_110959" cx="0" cy="0" r="1" gradientUnits="userSpaceOnUse" gradientTransform="translate(378 246.5) rotate(17.5897) scale(246.526 246.526)">
<stop stop-color="#656565"/>
<stop offset="1" stop-color="#464646" stop-opacity="0"/>
</radialGradient>
<radialGradient id="paint69_radial_5237_110959" cx="0" cy="0" r="1" gradientUnits="userSpaceOnUse" gradientTransform="translate(378 246.5) rotate(17.5897) scale(246.526 246.526)">
<stop stop-color="#656565"/>
<stop offset="1" stop-color="#464646" stop-opacity="0"/>
</radialGradient>
<radialGradient id="paint70_radial_5237_110959" cx="0" cy="0" r="1" gradientUnits="userSpaceOnUse" gradientTransform="translate(378 246.5) rotate(17.5897) scale(246.526 246.526)">
<stop stop-color="#656565"/>
<stop offset="1" stop-color="#464646" stop-opacity="0"/>
</radialGradient>
<radialGradient id="paint71_radial_5237_110959" cx="0" cy="0" r="1" gradientUnits="userSpaceOnUse" gradientTransform="translate(378 246.5) rotate(17.5897) scale(246.526 246.526)">
<stop stop-color="#656565"/>
<stop offset="1" stop-color="#464646" stop-opacity="0"/>
</radialGradient>
<radialGradient id="paint72_radial_5237_110959" cx="0" cy="0" r="1" gradientUnits="userSpaceOnUse" gradientTransform="translate(378 246.5) rotate(17.5897) scale(246.526 246.526)">
<stop stop-color="#656565"/>
<stop offset="1" stop-color="#464646" stop-opacity="0"/>
</radialGradient>
<radialGradient id="paint73_radial_5237_110959" cx="0" cy="0" r="1" gradientUnits="userSpaceOnUse" gradientTransform="translate(378 246.5) rotate(17.5897) scale(246.526 246.526)">
<stop stop-color="#656565"/>
<stop offset="1" stop-color="#464646" stop-opacity="0"/>
</radialGradient>
<radialGradient id="paint74_radial_5237_110959" cx="0" cy="0" r="1" gradientUnits="userSpaceOnUse" gradientTransform="translate(378 246.5) rotate(17.5897) scale(246.526 246.526)">
<stop stop-color="#656565"/>
<stop offset="1" stop-color="#464646" stop-opacity="0"/>
</radialGradient>
<radialGradient id="paint75_radial_5237_110959" cx="0" cy="0" r="1" gradientUnits="userSpaceOnUse" gradientTransform="translate(378 246.5) rotate(17.5897) scale(246.526 246.526)">
<stop stop-color="#656565"/>
<stop offset="1" stop-color="#464646" stop-opacity="0"/>
</radialGradient>
<radialGradient id="paint76_radial_5237_110959" cx="0" cy="0" r="1" gradientUnits="userSpaceOnUse" gradientTransform="translate(378 246.5) rotate(17.5897) scale(246.526 246.526)">
<stop stop-color="#656565"/>
<stop offset="1" stop-color="#464646" stop-opacity="0"/>
</radialGradient>
<radialGradient id="paint77_radial_5237_110959" cx="0" cy="0" r="1" gradientUnits="userSpaceOnUse" gradientTransform="translate(378 246.5) rotate(17.5897) scale(246.526 246.526)">
<stop stop-color="#656565"/>
<stop offset="1" stop-color="#464646" stop-opacity="0"/>
</radialGradient>
<radialGradient id="paint78_radial_5237_110959" cx="0" cy="0" r="1" gradientUnits="userSpaceOnUse" gradientTransform="translate(378 246.5) rotate(17.5897) scale(246.526 246.526)">
<stop stop-color="#656565"/>
<stop offset="1" stop-color="#464646" stop-opacity="0"/>
</radialGradient>
<radialGradient id="paint79_radial_5237_110959" cx="0" cy="0" r="1" gradientUnits="userSpaceOnUse" gradientTransform="translate(378 246.5) rotate(17.5897) scale(246.526 246.526)">
<stop stop-color="#656565"/>
<stop offset="1" stop-color="#464646" stop-opacity="0"/>
</radialGradient>
<radialGradient id="paint80_radial_5237_110959" cx="0" cy="0" r="1" gradientUnits="userSpaceOnUse" gradientTransform="translate(378 246.5) rotate(17.5897) scale(246.526 246.526)">
<stop stop-color="#656565"/>
<stop offset="1" stop-color="#464646" stop-opacity="0"/>
</radialGradient>
<radialGradient id="paint81_radial_5237_110959" cx="0" cy="0" r="1" gradientUnits="userSpaceOnUse" gradientTransform="translate(378 246.5) rotate(17.5897) scale(246.526 246.526)">
<stop stop-color="#656565"/>
<stop offset="1" stop-color="#464646" stop-opacity="0"/>
</radialGradient>
<radialGradient id="paint82_radial_5237_110959" cx="0" cy="0" r="1" gradientUnits="userSpaceOnUse" gradientTransform="translate(378 246.5) rotate(17.5897) scale(246.526 246.526)">
<stop stop-color="#656565"/>
<stop offset="1" stop-color="#464646" stop-opacity="0"/>
</radialGradient>
<radialGradient id="paint83_radial_5237_110959" cx="0" cy="0" r="1" gradientUnits="userSpaceOnUse" gradientTransform="translate(378 246.5) rotate(17.5897) scale(246.526 246.526)">
<stop stop-color="#656565"/>
<stop offset="1" stop-color="#464646" stop-opacity="0"/>
</radialGradient>
<clipPath id="clip0_5237_110959">
<rect width="760" height="521" fill="white"/>
</clipPath>
</defs>
</svg>
